<mxfile host="app.diagrams.net" modified="2020-10-16T11:20:35.591Z" agent="5.0 (Windows NT 10.0; Win64; x64) AppleWebKit/537.36 (KHTML, like Gecko) Chrome/86.0.4240.75 Safari/537.36" etag="Uaj68pZ6gAzENe9Vx4bT" version="13.7.5" type="github">
  <diagram id="R2lEEEUBdFMjLlhIrx00" name="Page-1">
    <mxGraphModel dx="818" dy="560" grid="1" gridSize="10" guides="1" tooltips="1" connect="1" arrows="1" fold="1" page="1" pageScale="1" pageWidth="850" pageHeight="1100" math="0" shadow="0" extFonts="Permanent Marker^https://fonts.googleapis.com/css?family=Permanent+Marker">
      <root>
        <mxCell id="0" />
        <mxCell id="1" parent="0" />
        <mxCell id="OEH8VnCKuiZxtnlKm28e-22" value="products_stock" style="rounded=1;arcSize=10;whiteSpace=wrap;html=1;align=center;" parent="1" vertex="1">
          <mxGeometry x="375" y="150" width="100" height="40" as="geometry" />
        </mxCell>
        <mxCell id="OEH8VnCKuiZxtnlKm28e-23" value="staff" style="rounded=1;arcSize=10;whiteSpace=wrap;html=1;align=center;" parent="1" vertex="1">
          <mxGeometry x="60" y="70" width="100" height="40" as="geometry" />
        </mxCell>
        <mxCell id="OEH8VnCKuiZxtnlKm28e-24" value="customers" style="rounded=1;arcSize=10;whiteSpace=wrap;html=1;align=center;" parent="1" vertex="1">
          <mxGeometry x="60" y="180" width="100" height="40" as="geometry" />
        </mxCell>
        <mxCell id="OEH8VnCKuiZxtnlKm28e-27" value="shippers" style="rounded=1;arcSize=10;whiteSpace=wrap;html=1;align=center;" parent="1" vertex="1">
          <mxGeometry x="60" y="280" width="100" height="40" as="geometry" />
        </mxCell>
        <mxCell id="OEH8VnCKuiZxtnlKm28e-28" value="sales" style="rounded=1;arcSize=10;whiteSpace=wrap;html=1;align=center;" parent="1" vertex="1">
          <mxGeometry x="230" y="150" width="100" height="40" as="geometry" />
        </mxCell>
        <mxCell id="OEH8VnCKuiZxtnlKm28e-43" value="" style="edgeStyle=entityRelationEdgeStyle;fontSize=12;html=1;endArrow=ERoneToMany;" parent="1" source="OEH8VnCKuiZxtnlKm28e-22" target="OEH8VnCKuiZxtnlKm28e-28" edge="1">
          <mxGeometry width="100" height="100" relative="1" as="geometry">
            <mxPoint x="290" y="170" as="sourcePoint" />
            <mxPoint x="360" y="220" as="targetPoint" />
          </mxGeometry>
        </mxCell>
        <mxCell id="OEH8VnCKuiZxtnlKm28e-47" value="" style="edgeStyle=entityRelationEdgeStyle;fontSize=12;html=1;endArrow=ERoneToMany;exitX=1;exitY=0.75;exitDx=0;exitDy=0;entryX=0;entryY=0.5;entryDx=0;entryDy=0;" parent="1" source="OEH8VnCKuiZxtnlKm28e-23" target="OEH8VnCKuiZxtnlKm28e-28" edge="1">
          <mxGeometry width="100" height="100" relative="1" as="geometry">
            <mxPoint x="180" y="200" as="sourcePoint" />
            <mxPoint x="220" y="170" as="targetPoint" />
          </mxGeometry>
        </mxCell>
        <mxCell id="OEH8VnCKuiZxtnlKm28e-48" value="" style="edgeStyle=entityRelationEdgeStyle;fontSize=12;html=1;endArrow=ERoneToMany;exitX=1;exitY=0.5;exitDx=0;exitDy=0;entryX=0;entryY=0.75;entryDx=0;entryDy=0;" parent="1" source="OEH8VnCKuiZxtnlKm28e-24" target="OEH8VnCKuiZxtnlKm28e-28" edge="1">
          <mxGeometry width="100" height="100" relative="1" as="geometry">
            <mxPoint x="260" y="320" as="sourcePoint" />
            <mxPoint x="360" y="220" as="targetPoint" />
          </mxGeometry>
        </mxCell>
        <mxCell id="OEH8VnCKuiZxtnlKm28e-49" value="" style="edgeStyle=entityRelationEdgeStyle;fontSize=12;html=1;endArrow=ERoneToMany;exitX=1;exitY=0.5;exitDx=0;exitDy=0;entryX=0;entryY=1;entryDx=0;entryDy=0;" parent="1" source="OEH8VnCKuiZxtnlKm28e-27" target="OEH8VnCKuiZxtnlKm28e-28" edge="1">
          <mxGeometry width="100" height="100" relative="1" as="geometry">
            <mxPoint x="160" y="300" as="sourcePoint" />
            <mxPoint x="260" y="200" as="targetPoint" />
          </mxGeometry>
        </mxCell>
        <mxCell id="ZuUQe5CWEu6JaH7Ruexp-2" value="" style="edgeStyle=entityRelationEdgeStyle;fontSize=12;html=1;endArrow=ERoneToMany;" parent="1" source="vYesePeP9xRsVJggHPay-15" target="OEH8VnCKuiZxtnlKm28e-22" edge="1">
          <mxGeometry width="100" height="100" relative="1" as="geometry">
            <mxPoint x="560" y="90" as="sourcePoint" />
            <mxPoint x="530" y="80" as="targetPoint" />
          </mxGeometry>
        </mxCell>
        <mxCell id="ZuUQe5CWEu6JaH7Ruexp-4" value="" style="edgeStyle=entityRelationEdgeStyle;fontSize=12;html=1;endArrow=ERoneToMany;" parent="1" source="vYesePeP9xRsVJggHPay-28" target="OEH8VnCKuiZxtnlKm28e-22" edge="1">
          <mxGeometry width="100" height="100" relative="1" as="geometry">
            <mxPoint x="560" y="260" as="sourcePoint" />
            <mxPoint x="700" y="70" as="targetPoint" />
          </mxGeometry>
        </mxCell>
        <mxCell id="ZuUQe5CWEu6JaH7Ruexp-6" value="" style="edgeStyle=entityRelationEdgeStyle;fontSize=12;html=1;endArrow=ERoneToMany;" parent="1" source="vYesePeP9xRsVJggHPay-2" target="OEH8VnCKuiZxtnlKm28e-22" edge="1">
          <mxGeometry width="100" height="100" relative="1" as="geometry">
            <mxPoint x="550" y="320" as="sourcePoint" />
            <mxPoint x="470" y="240" as="targetPoint" />
          </mxGeometry>
        </mxCell>
        <mxCell id="vYesePeP9xRsVJggHPay-1" value="suppliers" style="shape=table;startSize=30;container=1;collapsible=1;childLayout=tableLayout;fixedRows=1;rowLines=0;fontStyle=1;align=center;resizeLast=1;" vertex="1" parent="1">
          <mxGeometry x="570" y="390" width="180" height="90" as="geometry" />
        </mxCell>
        <mxCell id="vYesePeP9xRsVJggHPay-2" value="" style="shape=partialRectangle;collapsible=0;dropTarget=0;pointerEvents=0;fillColor=none;top=0;left=0;bottom=1;right=0;points=[[0,0.5],[1,0.5]];portConstraint=eastwest;" vertex="1" parent="vYesePeP9xRsVJggHPay-1">
          <mxGeometry y="30" width="180" height="20" as="geometry" />
        </mxCell>
        <mxCell id="vYesePeP9xRsVJggHPay-3" value="PK" style="shape=partialRectangle;connectable=0;fillColor=none;top=0;left=0;bottom=0;right=0;fontStyle=1;overflow=hidden;" vertex="1" parent="vYesePeP9xRsVJggHPay-2">
          <mxGeometry width="30" height="20" as="geometry" />
        </mxCell>
        <mxCell id="vYesePeP9xRsVJggHPay-4" value="ID serial " style="shape=partialRectangle;connectable=0;fillColor=none;top=0;left=0;bottom=0;right=0;align=left;spacingLeft=6;fontStyle=5;overflow=hidden;" vertex="1" parent="vYesePeP9xRsVJggHPay-2">
          <mxGeometry x="30" width="150" height="20" as="geometry" />
        </mxCell>
        <mxCell id="vYesePeP9xRsVJggHPay-5" value="" style="shape=partialRectangle;collapsible=0;dropTarget=0;pointerEvents=0;fillColor=none;top=0;left=0;bottom=0;right=0;points=[[0,0.5],[1,0.5]];portConstraint=eastwest;" vertex="1" parent="vYesePeP9xRsVJggHPay-1">
          <mxGeometry y="50" width="180" height="30" as="geometry" />
        </mxCell>
        <mxCell id="vYesePeP9xRsVJggHPay-6" value="" style="shape=partialRectangle;connectable=0;fillColor=none;top=0;left=0;bottom=0;right=0;editable=1;overflow=hidden;" vertex="1" parent="vYesePeP9xRsVJggHPay-5">
          <mxGeometry width="30" height="30" as="geometry" />
        </mxCell>
        <mxCell id="vYesePeP9xRsVJggHPay-7" value="name varchar (128)" style="shape=partialRectangle;connectable=0;fillColor=none;top=0;left=0;bottom=0;right=0;align=left;spacingLeft=6;overflow=hidden;" vertex="1" parent="vYesePeP9xRsVJggHPay-5">
          <mxGeometry x="30" width="150" height="30" as="geometry" />
        </mxCell>
        <mxCell id="vYesePeP9xRsVJggHPay-24" value="products" style="shape=table;startSize=30;container=1;collapsible=1;childLayout=tableLayout;fixedRows=1;rowLines=0;fontStyle=1;align=center;resizeLast=1;" vertex="1" parent="1">
          <mxGeometry x="570" y="220" width="180" height="90" as="geometry" />
        </mxCell>
        <mxCell id="vYesePeP9xRsVJggHPay-25" value="" style="shape=partialRectangle;collapsible=0;dropTarget=0;pointerEvents=0;fillColor=none;top=0;left=0;bottom=1;right=0;points=[[0,0.5],[1,0.5]];portConstraint=eastwest;" vertex="1" parent="vYesePeP9xRsVJggHPay-24">
          <mxGeometry y="30" width="180" height="20" as="geometry" />
        </mxCell>
        <mxCell id="vYesePeP9xRsVJggHPay-26" value="PK" style="shape=partialRectangle;connectable=0;fillColor=none;top=0;left=0;bottom=0;right=0;fontStyle=1;overflow=hidden;" vertex="1" parent="vYesePeP9xRsVJggHPay-25">
          <mxGeometry width="30" height="20" as="geometry" />
        </mxCell>
        <mxCell id="vYesePeP9xRsVJggHPay-27" value="ID serial " style="shape=partialRectangle;connectable=0;fillColor=none;top=0;left=0;bottom=0;right=0;align=left;spacingLeft=6;fontStyle=5;overflow=hidden;" vertex="1" parent="vYesePeP9xRsVJggHPay-25">
          <mxGeometry x="30" width="150" height="20" as="geometry" />
        </mxCell>
        <mxCell id="vYesePeP9xRsVJggHPay-28" value="" style="shape=partialRectangle;collapsible=0;dropTarget=0;pointerEvents=0;fillColor=none;top=0;left=0;bottom=0;right=0;points=[[0,0.5],[1,0.5]];portConstraint=eastwest;" vertex="1" parent="vYesePeP9xRsVJggHPay-24">
          <mxGeometry y="50" width="180" height="30" as="geometry" />
        </mxCell>
        <mxCell id="vYesePeP9xRsVJggHPay-29" value="" style="shape=partialRectangle;connectable=0;fillColor=none;top=0;left=0;bottom=0;right=0;editable=1;overflow=hidden;" vertex="1" parent="vYesePeP9xRsVJggHPay-28">
          <mxGeometry width="30" height="30" as="geometry" />
        </mxCell>
        <mxCell id="vYesePeP9xRsVJggHPay-30" value="name varchar (128)" style="shape=partialRectangle;connectable=0;fillColor=none;top=0;left=0;bottom=0;right=0;align=left;spacingLeft=6;overflow=hidden;" vertex="1" parent="vYesePeP9xRsVJggHPay-28">
          <mxGeometry x="30" width="150" height="30" as="geometry" />
        </mxCell>
        <mxCell id="vYesePeP9xRsVJggHPay-14" value="manufacturers" style="shape=table;startSize=30;container=1;collapsible=1;childLayout=tableLayout;fixedRows=1;rowLines=0;fontStyle=1;align=center;resizeLast=1;" vertex="1" parent="1">
          <mxGeometry x="570" y="50" width="180" height="120" as="geometry" />
        </mxCell>
        <mxCell id="vYesePeP9xRsVJggHPay-15" value="" style="shape=partialRectangle;collapsible=0;dropTarget=0;pointerEvents=0;fillColor=none;top=0;left=0;bottom=1;right=0;points=[[0,0.5],[1,0.5]];portConstraint=eastwest;" vertex="1" parent="vYesePeP9xRsVJggHPay-14">
          <mxGeometry y="30" width="180" height="20" as="geometry" />
        </mxCell>
        <mxCell id="vYesePeP9xRsVJggHPay-16" value="PK" style="shape=partialRectangle;connectable=0;fillColor=none;top=0;left=0;bottom=0;right=0;fontStyle=1;overflow=hidden;" vertex="1" parent="vYesePeP9xRsVJggHPay-15">
          <mxGeometry width="30" height="20" as="geometry" />
        </mxCell>
        <mxCell id="vYesePeP9xRsVJggHPay-17" value="ID serial " style="shape=partialRectangle;connectable=0;fillColor=none;top=0;left=0;bottom=0;right=0;align=left;spacingLeft=6;fontStyle=5;overflow=hidden;" vertex="1" parent="vYesePeP9xRsVJggHPay-15">
          <mxGeometry x="30" width="150" height="20" as="geometry" />
        </mxCell>
        <mxCell id="vYesePeP9xRsVJggHPay-18" value="" style="shape=partialRectangle;collapsible=0;dropTarget=0;pointerEvents=0;fillColor=none;top=0;left=0;bottom=0;right=0;points=[[0,0.5],[1,0.5]];portConstraint=eastwest;" vertex="1" parent="vYesePeP9xRsVJggHPay-14">
          <mxGeometry y="50" width="180" height="30" as="geometry" />
        </mxCell>
        <mxCell id="vYesePeP9xRsVJggHPay-19" value="" style="shape=partialRectangle;connectable=0;fillColor=none;top=0;left=0;bottom=0;right=0;editable=1;overflow=hidden;" vertex="1" parent="vYesePeP9xRsVJggHPay-18">
          <mxGeometry width="30" height="30" as="geometry" />
        </mxCell>
        <mxCell id="vYesePeP9xRsVJggHPay-20" value="name varchar (128)" style="shape=partialRectangle;connectable=0;fillColor=none;top=0;left=0;bottom=0;right=0;align=left;spacingLeft=6;overflow=hidden;" vertex="1" parent="vYesePeP9xRsVJggHPay-18">
          <mxGeometry x="30" width="150" height="30" as="geometry" />
        </mxCell>
        <mxCell id="vYesePeP9xRsVJggHPay-21" value="" style="shape=partialRectangle;collapsible=0;dropTarget=0;pointerEvents=0;fillColor=none;top=0;left=0;bottom=0;right=0;points=[[0,0.5],[1,0.5]];portConstraint=eastwest;" vertex="1" parent="vYesePeP9xRsVJggHPay-14">
          <mxGeometry y="80" width="180" height="30" as="geometry" />
        </mxCell>
        <mxCell id="vYesePeP9xRsVJggHPay-22" value="" style="shape=partialRectangle;connectable=0;fillColor=none;top=0;left=0;bottom=0;right=0;editable=1;overflow=hidden;" vertex="1" parent="vYesePeP9xRsVJggHPay-21">
          <mxGeometry width="30" height="30" as="geometry" />
        </mxCell>
        <mxCell id="vYesePeP9xRsVJggHPay-23" value="country varchar (128)" style="shape=partialRectangle;connectable=0;fillColor=none;top=0;left=0;bottom=0;right=0;align=left;spacingLeft=6;overflow=hidden;" vertex="1" parent="vYesePeP9xRsVJggHPay-21">
          <mxGeometry x="30" width="150" height="30" as="geometry" />
        </mxCell>
      </root>
    </mxGraphModel>
  </diagram>
</mxfile>
